<?xml version="1.0" encoding="utf-8"?>
<!-- Generator: Adobe Illustrator 23.0.3, SVG Export Plug-In . SVG Version: 6.00 Build 0)  -->
<svg version="1.1" id="Raides" xmlns="http://www.w3.org/2000/svg" xmlns:xlink="http://www.w3.org/1999/xlink" x="0px" y="0px"
	 viewBox="0 0 1309.96 1309.96" style="enable-background:new 0 0 1309.96 1309.96;" xml:space="preserve">
<style type="text/css">
	.st0{fill:#FFFFFF;stroke:#231F20;stroke-miterlimit:10;}
	.st1{fill:#434343;}
	.st2{fill:none;stroke:#231F20;stroke-miterlimit:10;}
	.st3{fill:none;stroke:#444444;stroke-width:20;stroke-miterlimit:10;}
	.st4{fill:none;}
	.st5{fill:#444444;}
	.st6{font-family:'MyriadPro-Regular';}
	.st7{font-size:100px;}
</style>
<rect x="0.5" y="0.5" class="st0" width="1308.96" height="1308.96"/>
<g id="XMLID_2_">
	<g>
		<path class="st1" d="M482.78,454.94c138.07,0,250,111.92,250,250c0,138.07-111.93,250-250,250c-4.38,0-8.74-0.11-13.06-0.34
			c104.98-29.65,181.92-126.15,181.92-240.62c0-133.69-104.94-242.87-236.94-249.66C436.35,458.21,459.18,454.94,482.78,454.94z"/>
		<path class="st1" d="M325.32,510.75C428.69,541.42,504.1,637.13,504.1,750.46c0,78.39-36.08,148.35-92.54,194.19
			c-8.56-2.54-16.93-5.53-25.08-8.93c50.44-45.75,82.12-111.8,82.12-185.26c0-103.95-63.43-193.07-153.7-230.78
			C318.29,516.61,321.76,513.63,325.32,510.75z"/>
		<path class="st1" d="M411.56,944.65c18.58,5.51,38.05,8.92,58.16,9.95c-21.65,6.11-44.48,9.38-68.08,9.38
			c-5.56,0-11.08-0.18-16.55-0.54C394.33,957.74,403.17,951.46,411.56,944.65z"/>
		<path class="st1" d="M401.64,463.98c4.38,0,8.74,0.11,13.06,0.34c-33.09,9.35-63.39,25.33-89.38,46.43
			c-17.5-5.19-35.8-8.52-54.67-9.75C308.74,477.52,353.61,463.98,401.64,463.98z"/>
		<path class="st1" d="M386.48,935.72c8.15,3.4,16.52,6.39,25.08,8.93c-8.39,6.81-17.23,13.09-26.47,18.79
			c-10.06-0.66-19.96-1.91-29.65-3.72C366.42,952.53,376.79,944.5,386.48,935.72z"/>
		<path class="st1" d="M355.44,959.72c9.69,1.81,19.59,3.06,29.65,3.72c-38.09,23.48-82.96,37.02-130.99,37.02
			c-5.97,0-11.89-0.21-17.75-0.63C280.11,996.77,320.77,982.44,355.44,959.72z"/>
		<path class="st1" d="M325.32,510.75c-3.56,2.88-7.03,5.86-10.42,8.93c-15.93-6.65-32.7-11.71-50.1-14.96
			c1.93-1.26,3.88-2.5,5.85-3.72C289.52,502.23,307.82,505.56,325.32,510.75z"/>
		<path class="st1" d="M270.65,501c-1.97,1.22-3.92,2.46-5.85,3.72c-9.31-1.74-18.8-2.96-28.45-3.63
			c5.86-0.42,11.78-0.63,17.75-0.63C259.66,500.46,265.18,500.64,270.65,501z"/>
	</g>
	<g>
		<path class="st2" d="M314.9,519.68c3.39-3.07,6.86-6.05,10.42-8.93c25.99-21.1,56.29-37.08,89.38-46.43
			c21.65-6.11,44.48-9.38,68.08-9.38c138.07,0,250,111.92,250,250c0,138.07-111.93,250-250,250c-4.38,0-8.74-0.11-13.06-0.34
			c-20.11-1.03-39.58-4.44-58.16-9.95"/>
		<path class="st2" d="M264.8,504.72c1.93-1.26,3.88-2.5,5.85-3.72c38.09-23.48,82.96-37.02,130.99-37.02
			c4.38,0,8.74,0.11,13.06,0.34c132,6.79,236.94,115.97,236.94,249.66c0,114.47-76.94,210.97-181.92,240.62
			c-21.65,6.11-44.48,9.38-68.08,9.38c-5.56,0-11.08-0.18-16.55-0.54"/>
		<path class="st2" d="M236.35,501.09c5.86-0.42,11.78-0.63,17.75-0.63c5.56,0,11.08,0.18,16.55,0.54"/>
		<path class="st2" d="M385.09,963.44c-38.09,23.48-82.96,37.02-130.99,37.02c-5.97,0-11.89-0.21-17.75-0.63"/>
		<path class="st2" d="M325.32,510.75C428.69,541.42,504.1,637.13,504.1,750.46c0,78.39-36.08,148.35-92.54,194.19"/>
		<path class="st2" d="M236.35,501.09c9.65,0.67,19.14,1.89,28.45,3.63c17.4,3.25,34.17,8.31,50.1,14.96
			c90.27,37.71,153.7,126.83,153.7,230.78c0,73.46-31.68,139.51-82.12,185.26c-9.69,8.78-20.06,16.81-31.04,24
			c-34.67,22.72-75.33,37.05-119.09,40.11"/>
	</g>
</g>
<g id="XMLID_1_">
	<g>
		<path class="st1" d="M1039.74,762.59c0.23,3.45,0.35,6.94,0.35,10.45c0,44-18.4,83.71-47.92,111.85
			c-10.31-10.67-18.16-23.74-22.62-38.28c8.42-15.51,14.25-32.63,16.94-50.77C999.76,779.37,1018.39,767.4,1039.74,762.59z"/>
		<path class="st1" d="M1033.16,727.14c3.51,11.31,5.76,23.18,6.58,35.45c-21.35,4.81-39.98,16.78-53.25,33.25
			c1.1-7.44,1.67-15.05,1.67-22.8c0-5.23-0.26-10.39-0.77-15.49C999.19,743.34,1015.03,732.62,1033.16,727.14z"/>
		<path class="st1" d="M885.58,309.5c85.33,0,154.51,69.18,154.51,154.51c0,85.34-69.18,154.52-154.51,154.52
			c-4.8,0-9.54-0.22-14.23-0.65c-0.33-0.93-0.66-1.86-1.01-2.78c69.72-14.93,121.99-76.91,121.99-151.09
			c0-77.21-56.64-141.19-130.63-152.68C869.48,310.13,877.46,309.5,885.58,309.5z"/>
		<path class="st1" d="M885.58,618.53c69.35,0,128.03,45.69,147.58,108.61c-18.13,5.48-33.97,16.2-45.77,30.41
			c-6.44-64.7-52.79-117.65-114.08-133.88c-0.49-1.52-1-3.03-1.52-4.53C876.33,618.74,880.93,618.53,885.58,618.53z"/>
		<path class="st1" d="M992.17,884.89c-5.21,4.97-10.77,9.57-16.63,13.78c-6.51-12.9-10.18-27.49-10.18-42.93
			c0-0.64,0.01-1.28,0.02-1.92c1.45-2.36,2.84-4.77,4.17-7.21C974.01,861.15,981.86,874.22,992.17,884.89z"/>
		<path class="st1" d="M873.31,623.67c7.97,24.41,12.27,50.48,12.27,77.56c0,78.8-36.45,149.08-93.41,194.9
			c-8.62-6.55-16.53-13.99-23.6-22.18c42.9-44.88,69.25-105.72,69.25-172.72c0-24.81-3.61-48.78-10.34-71.4
			c10.22-4.16,20.97-7.24,32.14-9.13C864.26,621.49,868.83,622.48,873.31,623.67z"/>
		<path class="st1" d="M871.79,619.14c0.52,1.5,1.03,3.01,1.52,4.53c-4.48-1.19-9.05-2.18-13.69-2.97
			C863.63,620.02,867.69,619.5,871.79,619.14z"/>
		<path class="st1" d="M871.35,617.88c0.15,0.42,0.3,0.84,0.44,1.26c-4.1,0.36-8.16,0.88-12.17,1.56
			c-8.44-1.43-17.12-2.17-25.97-2.17c-3.27,0-6.51,0.1-9.73,0.3c-0.11-0.32-0.22-0.64-0.33-0.95c4.69,0.43,9.43,0.65,14.23,0.65
			c8.12,0,16.1-0.63,23.88-1.84C864.89,617.19,868.1,617.59,871.35,617.88z"/>
		<path class="st1" d="M870.34,615.1c0.35,0.92,0.68,1.85,1.01,2.78c-3.25-0.29-6.46-0.69-9.65-1.19
			C864.61,616.24,867.49,615.71,870.34,615.1z"/>
		<path class="st1" d="M870.34,615.1c-2.85,0.61-5.73,1.14-8.64,1.59c-15.55-2.41-30.33-7.14-43.97-13.82
			c-17.81-41.57-46.56-77.34-82.63-103.68c-2.19-9.37-3.52-19.08-3.91-29.02C795.5,496.8,846.28,549.51,870.34,615.1z"/>
		<path class="st1" d="M837.82,309.5c8.12,0,16.1,0.63,23.88,1.83c-74,11.48-130.63,75.47-130.63,152.68c0,2.06,0.04,4.12,0.12,6.16
			c-15.19-6.3-31.14-11.14-47.67-14.35C687.78,374.3,755.23,309.5,837.82,309.5z"/>
		<path class="st1" d="M861.7,616.69c-7.78,1.21-15.76,1.84-23.88,1.84c-4.8,0-9.54-0.22-14.23-0.65
			c-1.8-5.08-3.75-10.09-5.86-15.01C831.37,609.55,846.15,614.28,861.7,616.69z"/>
		<path class="st1" d="M833.65,618.53c8.85,0,17.53,0.74,25.97,2.17c-11.17,1.89-21.92,4.97-32.14,9.13c-1.1-3.71-2.29-7.37-3.56-11
			C827.14,618.63,830.38,618.53,833.65,618.53z"/>
		<path class="st1" d="M817.73,602.87c2.11,4.92,4.06,9.93,5.86,15.01c-76.65-6.99-137.11-69.98-140.16-147.71
			c18.44,7.63,35.76,17.41,51.67,29.02C745.72,544.85,776.59,582.73,817.73,602.87z"/>
		<path class="st1" d="M768.57,873.95c7.07,8.19,14.98,15.63,23.6,22.18c-7.59,6.11-15.55,11.78-23.83,16.98
			c-9.17-4.29-17.86-9.45-25.95-15.38C751.67,890.43,760.41,882.48,768.57,873.95z"/>
		<path class="st1" d="M742.39,897.73c8.09,5.93,16.78,11.09,25.95,15.38c-32.67,20.51-70.42,33.68-110.94,37.18
			c13.28-2.4,25.02-9.24,33.61-18.93c5.49-2.48,10.53-5.78,14.96-9.75C718.83,914.7,731.01,906.7,742.39,897.73z M693.4,939.4
			l-2.94-5.08l-2.93,5.08H693.4z"/>
		<path class="st1" d="M731.19,470.17c0.39,9.94,1.72,19.65,3.91,29.02c-15.91-11.61-33.23-21.39-51.67-29.02
			c-0.08-2.04-0.12-4.1-0.12-6.16c0-2.75,0.07-5.48,0.21-8.19C700.05,459.03,716,463.87,731.19,470.17z"/>
		<path class="st1" d="M694.1,927.58c4.02-1.89,7.98-3.88,11.87-5.97c-4.43,3.97-9.47,7.27-14.96,9.75
			C692.1,930.15,693.13,928.88,694.1,927.58z"/>
		<polygon class="st1" points="690.46,934.32 693.4,939.4 687.53,939.4 		"/>
		<path class="st1" d="M694.1,927.58c-0.97,1.3-2,2.57-3.09,3.78c-5.49,2.49-11.43,4.16-17.67,4.86
			C680.42,933.65,687.34,930.76,694.1,927.58z"/>
		<path class="st1" d="M691.01,931.36c-8.59,9.69-20.33,16.53-33.61,18.93c-4.7,0.41-9.43,0.68-14.2,0.82
			c-5.39-0.32-10.59-1.37-15.49-3.05c15.75-2.52,31.01-6.52,45.63-11.84C679.58,935.52,685.52,933.85,691.01,931.36z"/>
		<path class="st1" d="M683.52,455.82c-0.14,2.71-0.21,5.44-0.21,8.19c0,2.06,0.04,4.12,0.12,6.16
			c-22.45-9.31-46.54-15.43-71.73-17.81c7.86-0.75,15.83-1.13,23.88-1.13C651.98,451.23,668,452.81,683.52,455.82z"/>
	</g>
	<g>
		<path class="st2" d="M975.54,898.67c-6.51-12.9-10.18-27.49-10.18-42.93c0-0.64,0.01-1.28,0.02-1.92"/>
		<path class="st2" d="M735.1,499.19c36.07,26.34,64.82,62.11,82.63,103.68c2.11,4.92,4.06,9.93,5.86,15.01
			c0.11,0.31,0.22,0.63,0.33,0.95c1.27,3.63,2.46,7.29,3.56,11c6.73,22.62,10.34,46.59,10.34,71.4c0,67-26.35,127.84-69.25,172.72
			c-8.16,8.53-16.9,16.48-26.18,23.78c-11.38,8.97-23.56,16.97-36.42,23.88c-3.89,2.09-7.85,4.08-11.87,5.97
			c-6.76,3.18-13.68,6.07-20.76,8.64c-14.62,5.32-29.88,9.32-45.63,11.84"/>
		<path class="st2" d="M611.7,452.36c25.19,2.38,49.28,8.5,71.73,17.81"/>
		<path class="st2" d="M731.19,470.17c64.31,26.63,115.09,79.34,139.15,144.93c0.35,0.92,0.68,1.85,1.01,2.78
			c0.15,0.42,0.3,0.84,0.44,1.26c0.52,1.5,1.03,3.01,1.52,4.53c7.97,24.41,12.27,50.48,12.27,77.56c0,78.8-36.45,149.08-93.41,194.9
			c-7.59,6.11-15.55,11.78-23.83,16.98c-32.67,20.51-70.42,33.68-110.94,37.18c-4.7,0.41-9.43,0.68-14.2,0.82"/>
		<path class="st2" d="M611.7,452.36c7.86-0.75,15.83-1.13,23.88-1.13c16.4,0,32.42,1.58,47.94,4.59"/>
		<path class="st2" d="M823.59,617.88c-76.65-6.99-137.11-69.98-140.16-147.71c-0.08-2.04-0.12-4.1-0.12-6.16
			c0-2.75,0.07-5.48,0.21-8.19c4.26-81.52,71.71-146.32,154.3-146.32c8.12,0,16.1,0.63,23.88,1.83
			c73.99,11.49,130.63,75.47,130.63,152.68c0,74.18-52.27,136.16-121.99,151.09c-2.85,0.61-5.73,1.14-8.64,1.59"/>
		<path class="st2" d="M859.62,620.7c4.64,0.79,9.21,1.78,13.69,2.97c61.29,16.23,107.64,69.18,114.08,133.88
			c0.51,5.1,0.77,10.26,0.77,15.49c0,7.75-0.57,15.36-1.67,22.8c-2.69,18.14-8.52,35.26-16.94,50.77c-1.33,2.44-2.72,4.85-4.17,7.21
			"/>
		<path class="st2" d="M817.73,602.87c-41.14-20.14-72.01-58.02-82.63-103.68c-2.19-9.37-3.52-19.08-3.91-29.02
			c-0.08-2.04-0.12-4.1-0.12-6.16c0-77.21,56.63-141.2,130.63-152.68c7.78-1.2,15.76-1.83,23.88-1.83
			c85.33,0,154.51,69.18,154.51,154.51c0,85.34-69.18,154.52-154.51,154.52c-4.8,0-9.54-0.22-14.23-0.65
			c-3.25-0.29-6.46-0.69-9.65-1.19"/>
		<path class="st2" d="M859.62,620.7c4.01-0.68,8.07-1.2,12.17-1.56c4.54-0.4,9.14-0.61,13.79-0.61
			c69.35,0,128.03,45.69,147.58,108.61c3.51,11.31,5.76,23.18,6.58,35.45c0.23,3.45,0.35,6.94,0.35,10.45
			c0,44-18.4,83.71-47.92,111.85c-5.21,4.97-10.77,9.57-16.63,13.78"/>
		<path class="st2" d="M657.4,950.29c-3.43,0.62-6.96,0.94-10.56,0.94c-1.22,0-2.44-0.04-3.64-0.12
			c-5.39-0.32-10.59-1.37-15.49-3.05"/>
	</g>
</g>
<rect x="0.5" y="0.5" class="st3" width="1308.96" height="1308.96"/>
<rect x="37.68" y="1137.7" class="st4" width="1226.88" height="146.88"/>
<text transform="matrix(1 0 0 1 311.5719 1208.6997)" class="st5 st6 st7">Rankų_Darbas.lt</text>
</svg>
