<?xml version="1.0" encoding="utf-8"?>
<!-- Generator: Adobe Illustrator 23.0.3, SVG Export Plug-In . SVG Version: 6.00 Build 0)  -->
<svg version="1.1" id="Raides" xmlns="http://www.w3.org/2000/svg" xmlns:xlink="http://www.w3.org/1999/xlink" x="0px" y="0px"
	 viewBox="0 0 1326.36 1325.12" style="enable-background:new 0 0 1326.36 1325.12;" xml:space="preserve">
<style type="text/css">
	.st0{fill:#FFFFFF;stroke:#434343;stroke-miterlimit:10;}
	.st1{fill:#434343;}
	.st2{fill:none;stroke:#231F20;stroke-miterlimit:10;}
	.st3{fill:none;stroke:#444444;stroke-width:20;stroke-miterlimit:10;}
	.st4{fill:none;}
	.st5{fill:#444444;}
	.st6{font-family:'MyriadPro-Regular';}
	.st7{font-size:100px;}
</style>
<rect x="8.02" y="9.08" class="st0" width="1308.96" height="1308.96"/>
<g id="XMLID_2_">
	<g>
		<path class="st1" d="M490.3,463.52c138.07,0,250,111.92,250,250c0,138.07-111.93,250-250,250c-4.38,0-8.74-0.11-13.06-0.34
			c104.98-29.65,181.92-126.15,181.92-240.62c0-133.69-104.94-242.87-236.94-249.66C443.87,466.79,466.7,463.52,490.3,463.52z"/>
		<path class="st1" d="M332.84,519.33C436.21,550,511.62,645.71,511.62,759.04c0,78.39-36.08,148.35-92.54,194.19
			c-8.56-2.54-16.93-5.53-25.08-8.93c50.44-45.75,82.12-111.8,82.12-185.26c0-103.95-63.43-193.07-153.7-230.78
			C325.81,525.19,329.28,522.21,332.84,519.33z"/>
		<path class="st1" d="M419.08,953.23c18.58,5.51,38.05,8.92,58.16,9.95c-21.65,6.11-44.48,9.38-68.08,9.38
			c-5.56,0-11.08-0.18-16.55-0.54C401.85,966.32,410.69,960.04,419.08,953.23z"/>
		<path class="st1" d="M409.16,472.56c4.38,0,8.74,0.11,13.06,0.34c-33.09,9.35-63.39,25.33-89.38,46.43
			c-17.5-5.19-35.8-8.52-54.67-9.75C316.26,486.1,361.13,472.56,409.16,472.56z"/>
		<path class="st1" d="M394,944.3c8.15,3.4,16.52,6.39,25.08,8.93c-8.39,6.81-17.23,13.09-26.47,18.79
			c-10.06-0.66-19.96-1.91-29.65-3.72C373.94,961.11,384.31,953.08,394,944.3z"/>
		<path class="st1" d="M362.96,968.3c9.69,1.81,19.59,3.06,29.65,3.72c-38.09,23.48-82.96,37.02-130.99,37.02
			c-5.97,0-11.89-0.21-17.75-0.63C287.63,1005.35,328.29,991.02,362.96,968.3z"/>
		<path class="st1" d="M332.84,519.33c-3.56,2.88-7.03,5.86-10.42,8.93c-15.93-6.65-32.7-11.71-50.1-14.96
			c1.93-1.26,3.88-2.5,5.85-3.72C297.04,510.81,315.34,514.14,332.84,519.33z"/>
		<path class="st1" d="M278.17,509.58c-1.97,1.22-3.92,2.46-5.85,3.72c-9.31-1.74-18.8-2.96-28.45-3.63
			c5.86-0.42,11.78-0.63,17.75-0.63C267.18,509.04,272.7,509.22,278.17,509.58z"/>
	</g>
	<g>
		<path class="st2" d="M322.42,528.26c3.39-3.07,6.86-6.05,10.42-8.93c25.99-21.1,56.29-37.08,89.38-46.43
			c21.65-6.11,44.48-9.38,68.08-9.38c138.07,0,250,111.92,250,250c0,138.07-111.93,250-250,250c-4.38,0-8.74-0.11-13.06-0.34
			c-20.11-1.03-39.58-4.44-58.16-9.95"/>
		<path class="st2" d="M272.32,513.3c1.93-1.26,3.88-2.5,5.85-3.72c38.09-23.48,82.96-37.02,130.99-37.02
			c4.38,0,8.74,0.11,13.06,0.34c132,6.79,236.94,115.97,236.94,249.66c0,114.47-76.94,210.97-181.92,240.62
			c-21.65,6.11-44.48,9.38-68.08,9.38c-5.56,0-11.08-0.18-16.55-0.54"/>
		<path class="st2" d="M243.87,509.67c5.86-0.42,11.78-0.63,17.75-0.63c5.56,0,11.08,0.18,16.55,0.54"/>
		<path class="st2" d="M392.61,972.02c-38.09,23.48-82.96,37.02-130.99,37.02c-5.97,0-11.89-0.21-17.75-0.63"/>
		<path class="st2" d="M332.84,519.33C436.21,550,511.62,645.71,511.62,759.04c0,78.39-36.08,148.35-92.54,194.19"/>
		<path class="st2" d="M243.87,509.67c9.65,0.67,19.14,1.89,28.45,3.63c17.4,3.25,34.17,8.31,50.1,14.96
			c90.27,37.71,153.7,126.83,153.7,230.78c0,73.46-31.68,139.51-82.12,185.26c-9.69,8.78-20.06,16.81-31.04,24
			c-34.67,22.72-75.33,37.05-119.09,40.11"/>
	</g>
</g>
<g id="XMLID_1_">
	<g>
		<path class="st1" d="M1047.27,771.17c0.23,3.45,0.35,6.94,0.35,10.45c0,44-18.4,83.71-47.92,111.85
			c-10.31-10.67-18.16-23.74-22.62-38.28c8.42-15.51,14.25-32.63,16.94-50.77C1007.29,787.95,1025.92,775.98,1047.27,771.17z"/>
		<path class="st1" d="M1040.69,735.72c3.51,11.31,5.76,23.18,6.58,35.45c-21.35,4.81-39.98,16.78-53.25,33.25
			c1.1-7.44,1.67-15.05,1.67-22.8c0-5.23-0.26-10.39-0.77-15.49C1006.72,751.92,1022.56,741.2,1040.69,735.72z"/>
		<path class="st1" d="M893.11,318.08c85.33,0,154.51,69.18,154.51,154.51c0,85.34-69.18,154.52-154.51,154.52
			c-4.8,0-9.54-0.22-14.23-0.65c-0.33-0.93-0.66-1.86-1.01-2.78c69.72-14.93,121.99-76.91,121.99-151.09
			c0-77.21-56.64-141.19-130.63-152.68C877.01,318.71,884.99,318.08,893.11,318.08z"/>
		<path class="st1" d="M893.11,627.11c69.35,0,128.03,45.69,147.58,108.61c-18.13,5.48-33.97,16.2-45.77,30.41
			c-6.44-64.7-52.79-117.65-114.08-133.88c-0.49-1.52-1-3.03-1.52-4.53C883.86,627.32,888.46,627.11,893.11,627.11z"/>
		<path class="st1" d="M999.7,893.47c-5.21,4.97-10.77,9.57-16.63,13.78c-6.51-12.9-10.18-27.49-10.18-42.93
			c0-0.64,0.01-1.28,0.02-1.92c1.45-2.36,2.84-4.77,4.17-7.21C981.54,869.73,989.39,882.8,999.7,893.47z"/>
		<path class="st1" d="M880.84,632.25c7.97,24.41,12.27,50.48,12.27,77.56c0,78.8-36.45,149.08-93.41,194.9
			c-8.62-6.55-16.53-13.99-23.6-22.18c42.9-44.88,69.25-105.72,69.25-172.72c0-24.81-3.61-48.78-10.34-71.4
			c10.22-4.16,20.97-7.24,32.14-9.13C871.79,630.07,876.36,631.06,880.84,632.25z"/>
		<path class="st1" d="M879.32,627.72c0.52,1.5,1.03,3.01,1.52,4.53c-4.48-1.19-9.05-2.18-13.69-2.97
			C871.16,628.6,875.22,628.08,879.32,627.72z"/>
		<path class="st1" d="M878.88,626.46c0.15,0.42,0.3,0.84,0.44,1.26c-4.1,0.36-8.16,0.88-12.17,1.56
			c-8.44-1.43-17.12-2.17-25.97-2.17c-3.27,0-6.51,0.1-9.73,0.3c-0.11-0.32-0.22-0.64-0.33-0.95c4.69,0.43,9.43,0.65,14.23,0.65
			c8.12,0,16.1-0.63,23.88-1.84C872.42,625.77,875.63,626.17,878.88,626.46z"/>
		<path class="st1" d="M877.87,623.68c0.35,0.92,0.68,1.85,1.01,2.78c-3.25-0.29-6.46-0.69-9.65-1.19
			C872.14,624.82,875.02,624.29,877.87,623.68z"/>
		<path class="st1" d="M877.87,623.68c-2.85,0.61-5.73,1.14-8.64,1.59c-15.55-2.41-30.33-7.14-43.97-13.82
			c-17.81-41.57-46.56-77.34-82.63-103.68c-2.19-9.37-3.52-19.08-3.91-29.02C803.03,505.38,853.81,558.09,877.87,623.68z"/>
		<path class="st1" d="M845.35,318.08c8.12,0,16.1,0.63,23.88,1.83c-74,11.48-130.63,75.47-130.63,152.68
			c0,2.06,0.04,4.12,0.12,6.16c-15.19-6.3-31.14-11.14-47.67-14.35C695.31,382.88,762.76,318.08,845.35,318.08z"/>
		<path class="st1" d="M869.23,625.27c-7.78,1.21-15.76,1.84-23.88,1.84c-4.8,0-9.54-0.22-14.23-0.65
			c-1.8-5.08-3.75-10.09-5.86-15.01C838.9,618.13,853.68,622.86,869.23,625.27z"/>
		<path class="st1" d="M841.18,627.11c8.85,0,17.53,0.74,25.97,2.17c-11.17,1.89-21.92,4.97-32.14,9.13c-1.1-3.71-2.29-7.37-3.56-11
			C834.67,627.21,837.91,627.11,841.18,627.11z"/>
		<path class="st1" d="M825.26,611.45c2.11,4.92,4.06,9.93,5.86,15.01c-76.65-6.99-137.11-69.98-140.16-147.71
			c18.44,7.63,35.76,17.41,51.67,29.02C753.25,553.43,784.12,591.31,825.26,611.45z"/>
		<path class="st1" d="M776.1,882.53c7.07,8.19,14.98,15.63,23.6,22.18c-7.59,6.11-15.55,11.78-23.83,16.98
			c-9.17-4.29-17.86-9.45-25.95-15.38C759.2,899.01,767.94,891.06,776.1,882.53z"/>
		<path class="st1" d="M749.92,906.31c8.09,5.93,16.78,11.09,25.95,15.38c-32.67,20.51-70.42,33.68-110.94,37.18
			c13.28-2.4,25.02-9.24,33.61-18.93c5.49-2.48,10.53-5.78,14.96-9.75C726.36,923.28,738.54,915.28,749.92,906.31z M700.93,947.98
			l-2.94-5.08l-2.93,5.08H700.93z"/>
		<path class="st1" d="M738.72,478.75c0.39,9.94,1.72,19.65,3.91,29.02c-15.91-11.61-33.23-21.39-51.67-29.02
			c-0.08-2.04-0.12-4.1-0.12-6.16c0-2.75,0.07-5.48,0.21-8.19C707.58,467.61,723.53,472.45,738.72,478.75z"/>
		<path class="st1" d="M701.63,936.16c4.02-1.89,7.98-3.88,11.87-5.97c-4.43,3.97-9.47,7.27-14.96,9.75
			C699.63,938.73,700.66,937.46,701.63,936.16z"/>
		<polygon class="st1" points="697.99,942.9 700.93,947.98 695.06,947.98 		"/>
		<path class="st1" d="M701.63,936.16c-0.97,1.3-2,2.57-3.09,3.78c-5.49,2.49-11.43,4.16-17.67,4.86
			C687.95,942.23,694.87,939.34,701.63,936.16z"/>
		<path class="st1" d="M698.54,939.94c-8.59,9.69-20.33,16.53-33.61,18.93c-4.7,0.41-9.43,0.68-14.2,0.82
			c-5.39-0.32-10.59-1.37-15.49-3.05c15.75-2.52,31.01-6.52,45.63-11.84C687.11,944.1,693.05,942.43,698.54,939.94z"/>
		<path class="st1" d="M691.05,464.4c-0.14,2.71-0.21,5.44-0.21,8.19c0,2.06,0.04,4.12,0.12,6.16
			c-22.45-9.31-46.54-15.43-71.73-17.81c7.86-0.75,15.83-1.13,23.88-1.13C659.51,459.81,675.53,461.39,691.05,464.4z"/>
	</g>
	<g>
		<path class="st2" d="M983.07,907.25c-6.51-12.9-10.18-27.49-10.18-42.93c0-0.64,0.01-1.28,0.02-1.92"/>
		<path class="st2" d="M742.63,507.77c36.07,26.34,64.82,62.11,82.63,103.68c2.11,4.92,4.06,9.93,5.86,15.01
			c0.11,0.31,0.22,0.63,0.33,0.95c1.27,3.63,2.46,7.29,3.56,11c6.73,22.62,10.34,46.59,10.34,71.4c0,67-26.35,127.84-69.25,172.72
			c-8.16,8.53-16.9,16.48-26.18,23.78c-11.38,8.97-23.56,16.97-36.42,23.88c-3.89,2.09-7.85,4.08-11.87,5.97
			c-6.76,3.18-13.68,6.07-20.76,8.64c-14.62,5.32-29.88,9.32-45.63,11.84"/>
		<path class="st2" d="M619.23,460.94c25.19,2.38,49.28,8.5,71.73,17.81"/>
		<path class="st2" d="M738.72,478.75c64.31,26.63,115.09,79.34,139.15,144.93c0.35,0.92,0.68,1.85,1.01,2.78
			c0.15,0.42,0.3,0.84,0.44,1.26c0.52,1.5,1.03,3.01,1.52,4.53c7.97,24.41,12.27,50.48,12.27,77.56c0,78.8-36.45,149.08-93.41,194.9
			c-7.59,6.11-15.55,11.78-23.83,16.98c-32.67,20.51-70.42,33.68-110.94,37.18c-4.7,0.41-9.43,0.68-14.2,0.82"/>
		<path class="st2" d="M619.23,460.94c7.86-0.75,15.83-1.13,23.88-1.13c16.4,0,32.42,1.58,47.94,4.59"/>
		<path class="st2" d="M831.12,626.46c-76.65-6.99-137.11-69.98-140.16-147.71c-0.08-2.04-0.12-4.1-0.12-6.16
			c0-2.75,0.07-5.48,0.21-8.19c4.26-81.52,71.71-146.32,154.3-146.32c8.12,0,16.1,0.63,23.88,1.83
			c73.99,11.49,130.63,75.47,130.63,152.68c0,74.18-52.27,136.16-121.99,151.09c-2.85,0.61-5.73,1.14-8.64,1.59"/>
		<path class="st2" d="M867.15,629.28c4.64,0.79,9.21,1.78,13.69,2.97c61.29,16.23,107.64,69.18,114.08,133.88
			c0.51,5.1,0.77,10.26,0.77,15.49c0,7.75-0.57,15.36-1.67,22.8c-2.69,18.14-8.52,35.26-16.94,50.77c-1.33,2.44-2.72,4.85-4.17,7.21
			"/>
		<path class="st2" d="M825.26,611.45c-41.14-20.14-72.01-58.02-82.63-103.68c-2.19-9.37-3.52-19.08-3.91-29.02
			c-0.08-2.04-0.12-4.1-0.12-6.16c0-77.21,56.63-141.2,130.63-152.68c7.78-1.2,15.76-1.83,23.88-1.83
			c85.33,0,154.51,69.18,154.51,154.51c0,85.34-69.18,154.52-154.51,154.52c-4.8,0-9.54-0.22-14.23-0.65
			c-3.25-0.29-6.46-0.69-9.65-1.19"/>
		<path class="st2" d="M867.15,629.28c4.01-0.68,8.07-1.2,12.17-1.56c4.54-0.4,9.14-0.61,13.79-0.61
			c69.35,0,128.03,45.69,147.58,108.61c3.51,11.31,5.76,23.18,6.58,35.45c0.23,3.45,0.35,6.94,0.35,10.45
			c0,44-18.4,83.71-47.92,111.85c-5.21,4.97-10.77,9.57-16.63,13.78"/>
		<path class="st2" d="M664.93,958.87c-3.43,0.62-6.96,0.94-10.56,0.94c-1.22,0-2.44-0.04-3.64-0.12
			c-5.39-0.32-10.59-1.37-15.49-3.05"/>
	</g>
</g>
<rect x="8.02" y="9.08" class="st3" width="1308.96" height="1308.96"/>
<rect x="45.2" y="1146.28" class="st4" width="1226.88" height="146.88"/>
<text transform="matrix(1 0 0 1 319.0952 1217.2788)" class="st5 st6 st7">Rankų_Darbas.lt</text>
<path class="st1" d="M740.25,510.47c1.44-1.17,1.13-4-0.96-4.43c-0.34-1.91-0.58-3.84-0.72-5.81c-0.18-2.63-3.48-3.13-4.62-1.38
	c0.23-3.59,0.46-7.19,0.69-10.78c0.1-1.63-1.14-2.43-2.41-2.4c0.06-0.2,0.11-0.41,0.12-0.63c0.02-0.37,0.04-0.74,0.06-1.11
	c1.35,0.55,3.16,0.12,3.39-1.55c0.28-2.03,0.56-4.06,0.84-6.09c0.38-2.76-3.28-4.15-4.48-2.29c-0.35-0.21-0.73-0.38-1.16-0.51
	c-0.21-0.06-0.42-0.09-0.62-0.1c-0.21-0.72-0.45-1.45-0.76-2.16c-0.19-0.43-0.48-0.74-0.83-0.94c-0.02-0.22-0.03-0.44-0.05-0.66
	c-0.33-3.13-5.02-3.29-5,0c0,0.24,0,0.47,0,0.71c-0.16-0.1-0.33-0.19-0.5-0.25c0-3.86-0.25-7.7-0.87-11.47
	c-0.3-1.81-2.77-1.13-2.95,0.4c-0.1,0.87-0.18,1.75-0.27,2.62c-0.74-0.66-2.15-0.61-2.49,0.64c-0.67,2.45-1.27,4.92-1.85,7.39
	c-0.47-0.21-0.95-0.42-1.42-0.62c-0.26-2.31-0.5-4.63-0.73-6.95c-0.18-1.88-3-1.97-3,0c0,1.84-0.01,3.68-0.01,5.53
	c-1.02-0.34-2.06-0.65-3.11-0.92c-4.29-1.1-8.89-1.09-12.63-3.7c-1.59-1.11-3.09,1.49-1.51,2.59c3.04,2.13,6.34,2.57,9.92,3.26
	c2.52,0.49,4.95,1.15,7.32,1.98c-0.01,4.53-0.02,9.07-0.03,13.6c-0.13-0.6-0.26-1.19-0.39-1.79c-0.57-2.61-3.97-2.13-4.73-0.1
	c-1-0.51-2.07-0.84-3.2-0.95c-1.07-0.1-1.33-0.01-2.23-0.64c-0.65-0.46-1.22-1.25-1.77-1.82c-0.31-0.32-0.64-0.52-0.98-0.63
	c-0.39-0.61-1.05-1.05-2-1.05c-2.9,0-3.18,4.05-0.85,4.85c0.09,0.12,0.17,0.25,0.29,0.36c1.99,2.06,3.26,3.79,6.26,3.93
	c3.62,0.17,5,3.18,6.42,6.12c0.68,1.41,2.08,1.52,3.16,0.93c0,2.48-0.01,4.96-0.01,7.45c0,1.96,2.82,1.89,3,0
	c0.34-3.53,0.77-7.04,1.28-10.54c0.78,3.24,1.72,6.45,2.85,9.62c0.16,0.43,0.51,0.74,0.92,0.91c0.38,2.33,0.79,4.67,1.21,6.99
	c0.53,3.14,1.12,6.27,1.77,9.38c0.66,3.16,5.43,1.81,4.82-1.33c-0.44-2.27-0.87-4.55-1.3-6.82c0.04,0.01,0.08,0.02,0.12,0.03
	c1.2,2.46,2.63,4.84,4.42,7.09c0.95,1.2,2.42,0.9,3.36,0.02c0.28,0.62,0.57,1.23,0.84,1.85c1.14,2.56,4.39,0.85,4.66-1.26
	c0.13-0.98,0.22-1.97,0.33-2.95c1.48-0.03,2.98-1.24,2.49-3.09C740.32,510.79,740.29,510.63,740.25,510.47z M718.19,477.47
	c-0.17,0.01-0.35,0.03-0.51,0.07c-0.59-0.03-1.18,0.12-1.65,0.43c0.27-1.34,0.55-2.68,0.85-4.01c0.53,0.23,1.03,0.14,1.42-0.13
	C718.25,475.04,718.22,476.25,718.19,477.47z M718.4,471.4c-0.04-0.03-0.08-0.06-0.13-0.08c-0.23-0.12-0.47-0.23-0.71-0.35
	c0.37-1.59,0.76-3.18,1.17-4.77C718.59,467.93,718.49,469.67,718.4,471.4z M729.65,488.06c-0.22,3.45-0.44,6.91-0.66,10.36
	c-0.16-0.32-0.32-0.65-0.49-0.98c-0.08-1.24-0.15-2.49-0.22-3.74c0.22-0.35,0.35-0.76,0.36-1.25c0.03-1.72,0.03-3.45,0.05-5.17
	c0.33,0.14,0.69,0.19,1.06,0.18C729.7,487.65,729.66,487.85,729.65,488.06z"/>
<path class="st1" d="M800.64,890.99c-3.07,0.06-6.13,0.15-9.19,0.27c2.91-1.67,4.77-3.87,3.9-7c-0.47-1.69-2.22-2.14-3.67-1.49
	c-2.24,1-5.68,2.33-7.36,4.54c-1.28-0.9-2.44-1.97-3.32-3.55c-1.56-2.81-5.88-0.29-4.32,2.52c0.86,1.55,1.93,2.83,3.15,3.96
	c-3.2,1.04-6.05,1.92-6.73,2.29c-2.13,1.13-1.22,4.84,1.26,4.66c3.84-0.28,7.68-0.5,11.53-0.69c1.38,1.87,3.1,3.54,4.65,4.8
	c0.5,0.41,1.11,0.58,1.72,0.57c0.01,0.39,0.11,0.79,0.3,1.18c0.5,1.01,1.21,1.87,2.27,2.32c1.25,0.53,2.92,0.34,3.84-0.75
	c0.38-0.44,0.62-1.01,0.68-1.58c1.17-1.42,0.56-4.18-1.84-4.18c-0.75,0-1.32,0.28-1.72,0.69c-0.28-0.13-0.58-0.22-0.89-0.25
	c-0.05-0.33-0.19-0.68-0.45-1.03c-0.47-0.65-0.85-1.36-1.21-2.08c2.46-0.08,4.92-0.15,7.38-0.2
	C803.85,895.93,803.86,890.93,800.64,890.99z"/>
<path class="st1" d="M778.61,911.63c-2.34,0.56-4.38,1.68-6.42,2.85c-0.14-0.22-0.31-0.42-0.5-0.59c0.6-2.14-2.24-4.41-4.17-2.46
	c-0.4,0.4-0.89,0.84-1.4,1.3c-3.32-3.89-8.88-4.93-13.91-5.57c-3.18-0.41-3.15,4.6,0,5c0.8,0.1,1.61,0.21,2.42,0.35
	c0.09,0.64,0.44,1.26,1.15,1.7c1.06,0.66,2.17,1.47,3.33,2.24c-0.79-0.01-1.58-0.03-2.38-0.09c-3.21-0.24-3.19,4.76,0,5
	c0.85,0.06,1.69,0.09,2.53,0.1c-1.16,1.55,0.19,4.52,2.7,3.99c2.11-0.44,4.01-1.82,5.72-3.43c1.04-0.15,2.05-0.49,3.04-0.94
	c0.45,0.06,0.91,0.11,1.37,0.11c1.46-0.01,2.25-1.05,2.39-2.17c1.8-1.07,3.59-2.12,5.46-2.56
	C783.07,915.71,781.74,910.89,778.61,911.63z"/>
<path class="st1" d="M1040.57,762.42c0.17-7.37,0.11-14.74-0.2-22.11c-0.28-6.69-5.39-10.22-10.61-10.57
	c0.04-0.92,0.07-1.84,0.11-2.76c0.3-5.94-5.27-11-11-11c-6.2,0-10.7,5.04-11,11c-0.32,6.32-0.47,12.65-0.5,18.97
	c-1.34,1.81-2.65,3.64-3.94,5.48c-4.87,1.52-7.25,6.21-7.13,10.83c-0.1,0.16-0.2,0.32-0.3,0.48c-0.87,1.43-0.13,2.78,1.02,3.38
	c1.19,3.3,3.85,5.99,7.97,6.63c-0.35,4.78-0.57,9.58-0.65,14.38c-0.52,0.4-1.05,0.81-1.57,1.21c-1.36,1.37-2.31,2.99-2.83,4.85
	c-0.2,0.49-0.39,0.97-0.59,1.46c-6.73,5.66-4.46,19.65,6.85,19.65c5.62,0,9.01-3.47,10.17-7.66c0.41-0.32,0.82-0.64,1.24-0.96
	c1.36-1.37,2.31-2.99,2.83-4.85l0.13-0.32c1.79-0.85,3.33-2.17,4.37-3.97c3.64-1.81,6.14-5.6,6.23-9.87
	c0.03-1.44,0.05-2.87,0.06-4.31c1.12,0.39,2.38,0.61,3.78,0.61C1046.96,783,1048.83,767.29,1040.57,762.42z"/>
<path class="st1" d="M1000.1,877.96c-0.03-0.17-0.07-0.33-0.1-0.5c0.34-1.05,0.49-2.18,0.42-3.36c-0.18-2.86-0.67-5.6-1.65-8.28
	c-0.73-1.99-1.5-3.93-1.88-6.03c-1.03-5.68-8.23-9.4-13.53-7.68c-6.09,1.97-8.78,7.45-7.68,13.53c0.19,1.07,0.49,2.09,0.83,3.1
	c-0.06,2.61,0.68,5.23,2.21,7.3c0.04,0.18,0.09,0.35,0.13,0.53c0.03,0.69,0.11,1.38,0.25,2.06c-0.32,2.91,0.36,5.95,2.05,8.29
	c0.77,4.74,4.26,8.96,10.46,8.96C1001.88,895.86,1004.71,884.32,1000.1,877.96z"/>
<path class="st1" d="M698.62,938.87c-7.45,1.99-14.05,6.41-21.43,8.78c-0.46,0.15-0.83,0.36-1.17,0.6
	c-0.21-0.03-0.43-0.07-0.66-0.07c-1.08,0-1.92,0.36-2.55,0.92c-0.6,0.03-1.12,0.17-1.57,0.39c-0.27,0.03-0.51,0.09-0.74,0.16
	c-0.12-0.01-0.23-0.04-0.35-0.04c-5.15,0-5.16,8,0,8c0.48,0,0.89-0.09,1.28-0.21c0.11,0.01,0.22,0.03,0.34,0.03
	c0.69,0,1.29-0.15,1.79-0.41c0.82-0.1,1.49-0.41,2.01-0.87c0.8-0.04,1.46-0.27,2-0.63c0.53,0.07,1.12,0.03,1.76-0.17
	c3.69-1.18,7.33-2.44,10.83-4.11c3.52-1.68,6.8-3.65,10.6-4.67C705.72,945.26,703.61,937.54,698.62,938.87z"/>
<path class="st1" d="M329.76,514.98c-0.2,0-0.37,0.04-0.54,0.07c-0.4-0.45-1-0.73-1.81-0.69c-2.98,0.15-5.76-0.42-8.39-1.85
	c-1.26-0.69-2.47-0.2-3.16,0.68c-2.29,0.06-3.99,0.25-6.31-0.83c-1.27-0.59-2.47-1.33-3.77-1.88c-6.92-2.89-15.9-1.33-23.18-1.21
	c-0.34,0.01-0.64,0.08-0.91,0.18c-0.17-0.03-0.35-0.05-0.54-0.05c-3.22,0-3.22,5,0,5c0.35,0,0.65-0.07,0.92-0.17
	c0.16,0.03,0.34,0.05,0.52,0.04c7.96-0.13,16.49-1.49,23.8,2.09c2.1,1.03,4.12,2.02,6.51,2.14c1.8,0.09,3.58-0.45,5.39-0.31
	c2.41,0.19,4.73,1.14,6.97,1.98c1.09,0.41,1.95,0.03,2.47-0.66c0.4,0.39,0.95,0.64,1.67,0.64c0.52,0,0.94-0.14,1.29-0.35
	C332.93,518.94,332.63,514.98,329.76,514.98z"/>
<path class="st1" d="M417.92,953.42c0-0.02,0.01-0.04,0.01-0.05c0.19-0.41,0.24-0.83,0.18-1.23c0.12-0.99,0.16-1.97,0.1-2.93
	c-0.14-2.03-1.88-3.89-4.02-2.99c-0.06,0.03-0.11,0.07-0.17,0.1c0.04-2.47-3.04-3.74-4.61-1.46c-1.08-0.91-2.86-1.04-3.79,0.53
	c-0.35,0.6-0.75,1.21-1.15,1.83c-0.33-0.08-0.67-0.16-1.01-0.23c-1.88-0.41-3.49-1.06-4.95-2.35c-2.4-2.12-5.95,1.4-3.54,3.54
	c1.91,1.68,4.07,2.93,6.56,3.52c0.05,0.01,0.11,0.02,0.16,0.03c-0.69,1.27-1.25,2.58-1.56,3.9c-0.5,2.2,1.71,3.8,3.67,2.82
	c0.25-0.12,0.48-0.26,0.72-0.41c0.15,0.25,0.35,0.46,0.57,0.65c-0.77,0.53-1.49,1.08-2.12,1.68c-0.36,0.34-0.65,0.63-0.91,0.9
	c-1.31,0.58-2.45,1.49-3.83,1.86c-2.07,0.54-4.08,0.52-6.11,1.36c-1.49,0.62-1.89,2.16-1.53,3.38c-0.27-0.1-0.56-0.16-0.9-0.16
	c-0.29,0-0.54,0.05-0.78,0.12c-0.69-0.08-1.37-0.13-2.05-0.09c-0.7-0.45-1.56-0.6-2.4-0.34c-0.78,0.24-1.4,0.82-1.68,1.56
	c-2.1,0.08-4.21,0.38-6.34,0.25c-3.45-0.21-6.46-0.87-9.97-0.74c-3.21,0.12-3.22,5.12,0,5c3.02-0.11,5.68,0.42,8.66,0.67
	c3.09,0.26,6.48-0.68,9.47-0.22c1.2,0.18,2.13-0.4,2.66-1.23c0.18,0,0.36,0,0.54,0c0.1,0.01,0.19,0.01,0.29,0.02
	c-0.18-0.04-0.12-0.03,0.2,0.03c0.42,0.07,0.86,0.05,1.27-0.04c0.05,0,0.09,0.01,0.14,0.01c1.95,0,2.71-1.83,2.3-3.27
	c0.17,0.05,0.36,0.07,0.56,0.07c0.2,0.47,0.54,0.88,1,1.12c0.74,0.39,1.58,0.41,2.29,0.1c0,0,0,0,0.01,0
	c0.07-0.03,0.13-0.07,0.19-0.1c0.28-0.14,0.56-0.33,0.81-0.64c0.11-0.13,0.22-0.25,0.34-0.36c0.66,0.24,1.39,0.22,2.02-0.19
	c0.35-0.23,0.64-0.55,0.86-0.91c0.67-0.07,1.37-0.12,2.07-0.34c1.52-0.47,2.1-1.41,3.07-2.56c1.35-1.61,3.18-2.96,5.16-4.12
	c0.35-0.11,0.69-0.29,0.97-0.55c2.03-1.09,4.17-2,6.13-2.74C419.78,957.32,419.54,954.26,417.92,953.42z"/>
<path class="st1" d="M868.78,624.01c-0.28-1.12-1.03-2-2.03-2.52c0.52-0.67,1.02-1.35,1.45-2.09c0.97-1.68-1.63-3.19-2.59-1.51
	c-0.61,1.06-1.35,2.01-2.08,2.96c-0.47-0.04-0.95-0.09-1.43-0.13c-0.14-1.92-0.26-3.85-0.33-5.78c-0.09-2.35-2.28-3.85-4.33-3.93
	c-0.29-3.41-0.54-6.81-0.71-10.23c-0.1-1.92-3.03-1.94-3,0c0.07,4.03,0.11,8.06,0.14,12.09c-0.72-0.18-1.55,0.23-1.81,1.01
	c-0.23-1.33-0.46-2.66-0.69-3.99c-0.28-1.64-2.41-1.24-2.85,0.06c-0.25-0.64-0.82-0.86-1.37-0.77c-0.23-1.11-1.59-1.28-2.38-0.73
	c-0.09-0.37-0.16-0.73-0.25-1.1c-0.47-1.92-3.16-1.06-2.89,0.8c0.04,0.25,0.07,0.5,0.11,0.74c-0.71-1.56-1.41-3.12-2.14-4.68
	c-0.63-1.36-2.83-0.63-2.84,0.66c-0.09-0.21-0.19-0.42-0.28-0.63c-0.69-1.61-3.13-0.43-2.74,1.16c0.23,0.93,0.46,1.86,0.68,2.78
	c-0.63-0.96-1.68-1.64-3.17-1.64c-0.01,0-0.01,0-0.02,0c-0.37-0.11-0.78-0.18-1.24-0.18c-4.71,0-5.1,6.67-1.2,7.82
	c0.42,1.05,1.25,1.91,2.51,2.21c0.26,0.7,0.53,1.39,0.82,2.08c0.38,0.9,1.33,1.25,2.07,0.93c0.07,0.21,0.16,0.4,0.22,0.61
	c0.31,0.88,1.15,1.15,1.86,0.98c0.02,0.06,0.05,0.11,0.07,0.17c-0.31,0.11-0.6,0.24-0.92,0.34c-1.9,0.14-3.02,1.41-3.38,2.9
	c-0.54,0.92-0.58,2.15,0.27,3.02c0.04,0.05,0.07,0.1,0.11,0.14c0.29,0.54,0.71,1.01,1.26,1.34c-0.68,1.48,0.03,3.65,2.16,3.65
	c1.31,0,2.08-0.84,2.32-1.82c0.09,0.05,0.16,0.11,0.26,0.15c0.07,0.03,0.14,0.04,0.21,0.06c0.35,1.14,0.71,2.28,1.09,3.41
	c-0.58,0.23-1.17,0.42-1.79,0.55c-0.02,0-0.04-0.01-0.07-0.01c-3.22,0-3.22,5,0,5c0.12,0,0.24-0.02,0.35-0.03
	c0.17,0,0.35-0.01,0.52-0.04c0.94-0.13,1.82-0.44,2.68-0.8c0.71,1.85,1.46,3.68,2.27,5.5c0.73,1.63,3.06,0.41,2.74-1.16
	c-0.4-1.95-0.87-3.88-1.37-5.8c0.28-0.13,0.52-0.29,0.72-0.48c0.41,2.85,0.82,5.71,1.23,8.56c0.26,1.78,2.79,1.19,2.91-0.44
	c0.75,0.53,1.96,0.16,2.3-0.74c0.62-0.17,1.13-0.65,1.07-1.4c-0.02-0.24-0.04-0.48-0.06-0.72c0.43,0.76,0.86,1.52,1.28,2.29
	c0.09,0.17,0.21,0.31,0.34,0.42c0.56,2.65,1.14,5.3,1.76,7.95c0.38,1.62,3.1,1.31,2.95-0.4c-0.06-0.72-0.14-1.44-0.21-2.15
	c0.86,0.69,2.46,0.19,2.47-1.15c0.01-1.74,0.02-3.49,0.04-5.23c1.62-0.45,2.96-1.75,2.84-3.73c-0.14-2.19-0.21-4.38-0.24-6.57
	c1.89-0.89,2.52-3.22,1.89-5.07c0.82-0.33,1.5-0.97,1.96-1.74C869.05,626.21,869.21,624.98,868.78,624.01z M844.23,632.81
	c0-0.06,0.01-0.11,0.02-0.17c0.29,0.01,0.59-0.04,0.87-0.14l0.08,0.57C844.92,632.91,844.6,632.82,844.23,632.81z"/>
</svg>
