<?xml version="1.0" encoding="utf-8"?>
<!-- Generator: Adobe Illustrator 23.0.3, SVG Export Plug-In . SVG Version: 6.00 Build 0)  -->
<svg version="1.1" id="Raides" xmlns="http://www.w3.org/2000/svg" xmlns:xlink="http://www.w3.org/1999/xlink" x="0px" y="0px"
	 viewBox="0 0 2560 1440" style="enable-background:new 0 0 2560 1440;" xml:space="preserve">
<style type="text/css">
	.st0{fill:#434343;}
	.st1{fill:none;stroke:#231F20;stroke-miterlimit:10;}
	.st2{fill:none;stroke:#444444;stroke-width:20;stroke-miterlimit:10;}
	.st3{fill:none;}
	.st4{fill:#444444;}
	.st5{font-family:'MyriadPro-Regular';}
	.st6{font-size:100px;}
</style>
<g id="XMLID_2_">
	<g>
		<path class="st0" d="M803.78,519.96c138.07,0,250,111.92,250,250c0,138.07-111.93,250-250,250c-4.38,0-8.74-0.11-13.06-0.34
			C895.7,989.97,972.64,893.47,972.64,779c0-133.69-104.94-242.87-236.94-249.66C757.35,523.23,780.18,519.96,803.78,519.96z"/>
		<path class="st0" d="M646.32,575.77C749.69,606.44,825.1,702.15,825.1,815.48c0,78.39-36.08,148.35-92.54,194.19
			c-8.56-2.54-16.93-5.53-25.08-8.93c50.44-45.75,82.12-111.8,82.12-185.26c0-103.95-63.43-193.07-153.7-230.78
			C639.29,581.63,642.76,578.65,646.32,575.77z"/>
		<path class="st0" d="M732.56,1009.67c18.58,5.51,38.05,8.92,58.16,9.95c-21.65,6.11-44.48,9.38-68.08,9.38
			c-5.56,0-11.08-0.18-16.55-0.54C715.33,1022.76,724.17,1016.48,732.56,1009.67z"/>
		<path class="st0" d="M722.64,529c4.38,0,8.74,0.11,13.06,0.34c-33.09,9.35-63.39,25.33-89.38,46.43
			c-17.5-5.19-35.8-8.52-54.67-9.75C629.74,542.54,674.61,529,722.64,529z"/>
		<path class="st0" d="M707.48,1000.74c8.15,3.4,16.52,6.39,25.08,8.93c-8.39,6.81-17.23,13.09-26.47,18.79
			c-10.06-0.66-19.96-1.91-29.65-3.72C687.42,1017.55,697.79,1009.52,707.48,1000.74z"/>
		<path class="st0" d="M676.44,1024.74c9.69,1.81,19.59,3.06,29.65,3.72c-38.09,23.48-82.96,37.02-130.99,37.02
			c-5.97,0-11.89-0.21-17.75-0.63C601.11,1061.79,641.77,1047.46,676.44,1024.74z"/>
		<path class="st0" d="M646.32,575.77c-3.56,2.88-7.03,5.86-10.42,8.93c-15.93-6.65-32.7-11.71-50.1-14.96
			c1.93-1.26,3.88-2.5,5.85-3.72C610.52,567.25,628.82,570.58,646.32,575.77z"/>
		<path class="st0" d="M591.65,566.02c-1.97,1.22-3.92,2.46-5.85,3.72c-9.31-1.74-18.8-2.96-28.45-3.63
			c5.86-0.42,11.78-0.63,17.75-0.63C580.66,565.48,586.18,565.66,591.65,566.02z"/>
	</g>
	<g>
		<path class="st1" d="M635.9,584.7c3.39-3.07,6.86-6.05,10.42-8.93c25.99-21.1,56.29-37.08,89.38-46.43
			c21.65-6.11,44.48-9.38,68.08-9.38c138.07,0,250,111.92,250,250c0,138.07-111.93,250-250,250c-4.38,0-8.74-0.11-13.06-0.34
			c-20.11-1.03-39.58-4.44-58.16-9.95"/>
		<path class="st1" d="M585.8,569.74c1.93-1.26,3.88-2.5,5.85-3.72C629.74,542.54,674.61,529,722.64,529
			c4.38,0,8.74,0.11,13.06,0.34c132,6.79,236.94,115.97,236.94,249.66c0,114.47-76.94,210.97-181.92,240.62
			c-21.65,6.11-44.48,9.38-68.08,9.38c-5.56,0-11.08-0.18-16.55-0.54"/>
		<path class="st1" d="M557.35,566.11c5.86-0.42,11.78-0.63,17.75-0.63c5.56,0,11.08,0.18,16.55,0.54"/>
		<path class="st1" d="M706.09,1028.46c-38.09,23.48-82.96,37.02-130.99,37.02c-5.97,0-11.89-0.21-17.75-0.63"/>
		<path class="st1" d="M646.32,575.77C749.69,606.44,825.1,702.15,825.1,815.48c0,78.39-36.08,148.35-92.54,194.19"/>
		<path class="st1" d="M557.35,566.11c9.65,0.67,19.14,1.89,28.45,3.63c17.4,3.25,34.17,8.31,50.1,14.96
			c90.27,37.71,153.7,126.83,153.7,230.78c0,73.46-31.68,139.51-82.12,185.26c-9.69,8.78-20.06,16.81-31.04,24
			c-34.67,22.72-75.33,37.05-119.09,40.11"/>
	</g>
</g>
<g id="XMLID_1_">
	<g>
		<path class="st0" d="M1360.75,827.61c0.23,3.45,0.35,6.94,0.35,10.45c0,44-18.4,83.71-47.92,111.85
			c-10.31-10.67-18.16-23.74-22.62-38.28c8.42-15.51,14.25-32.63,16.94-50.77C1320.77,844.39,1339.4,832.42,1360.75,827.61z"/>
		<path class="st0" d="M1354.17,792.16c3.51,11.31,5.76,23.18,6.58,35.45c-21.35,4.81-39.98,16.78-53.25,33.25
			c1.1-7.44,1.67-15.05,1.67-22.8c0-5.23-0.26-10.39-0.77-15.49C1320.2,808.36,1336.04,797.64,1354.17,792.16z"/>
		<path class="st0" d="M1206.59,374.52c85.33,0,154.51,69.18,154.51,154.51c0,85.34-69.18,154.52-154.51,154.52
			c-4.8,0-9.54-0.22-14.23-0.65c-0.33-0.93-0.66-1.86-1.01-2.78c69.72-14.93,121.99-76.91,121.99-151.09
			c0-77.21-56.64-141.19-130.63-152.68C1190.49,375.15,1198.47,374.52,1206.59,374.52z"/>
		<path class="st0" d="M1206.59,683.55c69.35,0,128.03,45.69,147.58,108.61c-18.13,5.48-33.97,16.2-45.77,30.41
			c-6.44-64.7-52.79-117.65-114.08-133.88c-0.49-1.52-1-3.03-1.52-4.53C1197.34,683.76,1201.94,683.55,1206.59,683.55z"/>
		<path class="st0" d="M1313.18,949.91c-5.21,4.97-10.77,9.57-16.63,13.78c-6.51-12.9-10.18-27.49-10.18-42.93
			c0-0.64,0.01-1.28,0.02-1.92c1.45-2.36,2.84-4.77,4.17-7.21C1295.02,926.17,1302.87,939.24,1313.18,949.91z"/>
		<path class="st0" d="M1194.32,688.69c7.97,24.41,12.27,50.48,12.27,77.56c0,78.8-36.45,149.08-93.41,194.9
			c-8.62-6.55-16.53-13.99-23.6-22.18c42.9-44.88,69.25-105.72,69.25-172.72c0-24.81-3.61-48.78-10.34-71.4
			c10.22-4.16,20.97-7.24,32.14-9.13C1185.27,686.51,1189.84,687.5,1194.32,688.69z"/>
		<path class="st0" d="M1192.8,684.16c0.52,1.5,1.03,3.01,1.52,4.53c-4.48-1.19-9.05-2.18-13.69-2.97
			C1184.64,685.04,1188.7,684.52,1192.8,684.16z"/>
		<path class="st0" d="M1192.36,682.9c0.15,0.42,0.3,0.84,0.44,1.26c-4.1,0.36-8.16,0.88-12.17,1.56
			c-8.44-1.43-17.12-2.17-25.97-2.17c-3.27,0-6.51,0.1-9.73,0.3c-0.11-0.32-0.22-0.64-0.33-0.95c4.69,0.43,9.43,0.65,14.23,0.65
			c8.12,0,16.1-0.63,23.88-1.84C1185.9,682.21,1189.11,682.61,1192.36,682.9z"/>
		<path class="st0" d="M1191.35,680.12c0.35,0.92,0.68,1.85,1.01,2.78c-3.25-0.29-6.46-0.69-9.65-1.19
			C1185.62,681.26,1188.5,680.73,1191.35,680.12z"/>
		<path class="st0" d="M1191.35,680.12c-2.85,0.61-5.73,1.14-8.64,1.59c-15.55-2.41-30.33-7.14-43.97-13.82
			c-17.81-41.57-46.56-77.34-82.63-103.68c-2.19-9.37-3.52-19.08-3.91-29.02C1116.51,561.82,1167.29,614.53,1191.35,680.12z"/>
		<path class="st0" d="M1158.83,374.52c8.12,0,16.1,0.63,23.88,1.83c-74,11.48-130.63,75.47-130.63,152.68
			c0,2.06,0.04,4.12,0.12,6.16c-15.19-6.3-31.14-11.14-47.67-14.35C1008.79,439.32,1076.24,374.52,1158.83,374.52z"/>
		<path class="st0" d="M1182.71,681.71c-7.78,1.21-15.76,1.84-23.88,1.84c-4.8,0-9.54-0.22-14.23-0.65
			c-1.8-5.08-3.75-10.09-5.86-15.01C1152.38,674.57,1167.16,679.3,1182.71,681.71z"/>
		<path class="st0" d="M1154.66,683.55c8.85,0,17.53,0.74,25.97,2.17c-11.17,1.89-21.92,4.97-32.14,9.13
			c-1.1-3.71-2.29-7.37-3.56-11C1148.15,683.65,1151.39,683.55,1154.66,683.55z"/>
		<path class="st0" d="M1138.74,667.89c2.11,4.92,4.06,9.93,5.86,15.01c-76.65-6.99-137.11-69.98-140.16-147.71
			c18.44,7.63,35.76,17.41,51.67,29.02C1066.73,609.87,1097.6,647.75,1138.74,667.89z"/>
		<path class="st0" d="M1089.58,938.97c7.07,8.19,14.98,15.63,23.6,22.18c-7.59,6.11-15.55,11.78-23.83,16.98
			c-9.17-4.29-17.86-9.45-25.95-15.38C1072.68,955.45,1081.42,947.5,1089.58,938.97z"/>
		<path class="st0" d="M1063.4,962.75c8.09,5.93,16.78,11.09,25.95,15.38c-32.67,20.51-70.42,33.68-110.94,37.18
			c13.28-2.4,25.02-9.24,33.61-18.93c5.49-2.48,10.53-5.78,14.96-9.75C1039.84,979.72,1052.02,971.72,1063.4,962.75z
			 M1014.41,1004.42l-2.94-5.08l-2.93,5.08H1014.41z"/>
		<path class="st0" d="M1052.2,535.19c0.39,9.94,1.72,19.65,3.91,29.02c-15.91-11.61-33.23-21.39-51.67-29.02
			c-0.08-2.04-0.12-4.1-0.12-6.16c0-2.75,0.07-5.48,0.21-8.19C1021.06,524.05,1037.01,528.89,1052.2,535.19z"/>
		<path class="st0" d="M1015.11,992.6c4.02-1.89,7.98-3.88,11.87-5.97c-4.43,3.97-9.47,7.27-14.96,9.75
			C1013.11,995.17,1014.14,993.9,1015.11,992.6z"/>
		<polygon class="st0" points="1011.47,999.34 1014.41,1004.42 1008.54,1004.42 		"/>
		<path class="st0" d="M1015.11,992.6c-0.97,1.3-2,2.57-3.09,3.78c-5.49,2.49-11.43,4.16-17.67,4.86
			C1001.43,998.67,1008.35,995.78,1015.11,992.6z"/>
		<path class="st0" d="M1012.02,996.38c-8.59,9.69-20.33,16.53-33.61,18.93c-4.7,0.41-9.43,0.68-14.2,0.82
			c-5.39-0.32-10.59-1.37-15.49-3.05c15.75-2.52,31.01-6.52,45.63-11.84C1000.59,1000.54,1006.53,998.87,1012.02,996.38z"/>
		<path class="st0" d="M1004.53,520.84c-0.14,2.71-0.21,5.44-0.21,8.19c0,2.06,0.04,4.12,0.12,6.16
			c-22.45-9.31-46.54-15.43-71.73-17.81c7.86-0.75,15.83-1.13,23.88-1.13C972.99,516.25,989.01,517.83,1004.53,520.84z"/>
	</g>
	<g>
		<path class="st1" d="M1296.55,963.69c-6.51-12.9-10.18-27.49-10.18-42.93c0-0.64,0.01-1.28,0.02-1.92"/>
		<path class="st1" d="M1056.11,564.21c36.07,26.34,64.82,62.11,82.63,103.68c2.11,4.92,4.06,9.93,5.86,15.01
			c0.11,0.31,0.22,0.63,0.33,0.95c1.27,3.63,2.46,7.29,3.56,11c6.73,22.62,10.34,46.59,10.34,71.4c0,67-26.35,127.84-69.25,172.72
			c-8.16,8.53-16.9,16.48-26.18,23.78c-11.38,8.97-23.56,16.97-36.42,23.88c-3.89,2.09-7.85,4.08-11.87,5.97
			c-6.76,3.18-13.68,6.07-20.76,8.64c-14.62,5.32-29.88,9.32-45.63,11.84"/>
		<path class="st1" d="M932.71,517.38c25.19,2.38,49.28,8.5,71.73,17.81"/>
		<path class="st1" d="M1052.2,535.19c64.31,26.63,115.09,79.34,139.15,144.93c0.35,0.92,0.68,1.85,1.01,2.78
			c0.15,0.42,0.3,0.84,0.44,1.26c0.52,1.5,1.03,3.01,1.52,4.53c7.97,24.41,12.27,50.48,12.27,77.56c0,78.8-36.45,149.08-93.41,194.9
			c-7.59,6.11-15.55,11.78-23.83,16.98c-32.67,20.51-70.42,33.68-110.94,37.18c-4.7,0.41-9.43,0.68-14.2,0.82"/>
		<path class="st1" d="M932.71,517.38c7.86-0.75,15.83-1.13,23.88-1.13c16.4,0,32.42,1.58,47.94,4.59"/>
		<path class="st1" d="M1144.6,682.9c-76.65-6.99-137.11-69.98-140.16-147.71c-0.08-2.04-0.12-4.1-0.12-6.16
			c0-2.75,0.07-5.48,0.21-8.19c4.26-81.52,71.71-146.32,154.3-146.32c8.12,0,16.1,0.63,23.88,1.83
			c73.99,11.49,130.63,75.47,130.63,152.68c0,74.18-52.27,136.16-121.99,151.09c-2.85,0.61-5.73,1.14-8.64,1.59"/>
		<path class="st1" d="M1180.63,685.72c4.64,0.79,9.21,1.78,13.69,2.97c61.29,16.23,107.64,69.18,114.08,133.88
			c0.51,5.1,0.77,10.26,0.77,15.49c0,7.75-0.57,15.36-1.67,22.8c-2.69,18.14-8.52,35.26-16.94,50.77c-1.33,2.44-2.72,4.85-4.17,7.21
			"/>
		<path class="st1" d="M1138.74,667.89c-41.14-20.14-72.01-58.02-82.63-103.68c-2.19-9.37-3.52-19.08-3.91-29.02
			c-0.08-2.04-0.12-4.1-0.12-6.16c0-77.21,56.63-141.2,130.63-152.68c7.78-1.2,15.76-1.83,23.88-1.83
			c85.33,0,154.51,69.18,154.51,154.51c0,85.34-69.18,154.52-154.51,154.52c-4.8,0-9.54-0.22-14.23-0.65
			c-3.25-0.29-6.46-0.69-9.65-1.19"/>
		<path class="st1" d="M1180.63,685.72c4.01-0.68,8.07-1.2,12.17-1.56c4.54-0.4,9.14-0.61,13.79-0.61
			c69.35,0,128.03,45.69,147.58,108.61c3.51,11.31,5.76,23.18,6.58,35.45c0.23,3.45,0.35,6.94,0.35,10.45
			c0,44-18.4,83.71-47.92,111.85c-5.21,4.97-10.77,9.57-16.63,13.78"/>
		<path class="st1" d="M978.41,1015.31c-3.43,0.62-6.96,0.94-10.56,0.94c-1.22,0-2.44-0.04-3.64-0.12
			c-5.39-0.32-10.59-1.37-15.49-3.05"/>
	</g>
</g>
<rect x="321.5" y="65.52" class="st2" width="1308.96" height="1308.96"/>
<rect x="358.68" y="1202.72" class="st3" width="1226.88" height="146.88"/>
<text transform="matrix(1 0 0 1 632.5752 1273.7188)" class="st4 st5 st6">Rankų_Darbas.lt</text>
</svg>
