<?xml version="1.0" encoding="utf-8"?>
<!-- Generator: Adobe Illustrator 23.0.3, SVG Export Plug-In . SVG Version: 6.00 Build 0)  -->
<svg version="1.1" id="Raides" xmlns="http://www.w3.org/2000/svg" xmlns:xlink="http://www.w3.org/1999/xlink" x="0px" y="0px"
	 viewBox="0 0 1348.33 1348.33" style="enable-background:new 0 0 1348.33 1348.33;" xml:space="preserve">
<style type="text/css">
	.st0{fill:#FFFFFF;stroke:#231F20;stroke-miterlimit:10;}
	.st1{fill:#434343;}
	.st2{fill:none;stroke:#231F20;stroke-miterlimit:10;}
	.st3{fill:none;stroke:#444444;stroke-width:20;stroke-miterlimit:10;}
	.st4{fill:none;}
	.st5{fill:#444444;}
	.st6{font-family:'MyriadPro-Regular';}
	.st7{font-size:100px;}
</style>
<rect class="st0" width="1350.33" height="1350.33"/>
<g id="XMLID_2_">
	<g>
		<path class="st1" d="M498.77,479.32c138.07,0,250,111.92,250,250c0,138.07-111.93,250-250,250c-4.38,0-8.74-0.11-13.06-0.34
			c104.98-29.65,181.92-126.15,181.92-240.62c0-133.69-104.94-242.87-236.94-249.66C452.34,482.59,475.17,479.32,498.77,479.32z"/>
		<path class="st1" d="M341.31,535.13c103.37,30.67,178.78,126.38,178.78,239.71c0,78.39-36.08,148.35-92.54,194.19
			c-8.56-2.54-16.93-5.53-25.08-8.93c50.44-45.75,82.12-111.8,82.12-185.26c0-103.95-63.43-193.07-153.7-230.78
			C334.28,540.99,337.75,538.01,341.31,535.13z"/>
		<path class="st1" d="M427.55,969.03c18.58,5.51,38.05,8.92,58.16,9.95c-21.65,6.11-44.48,9.38-68.08,9.38
			c-5.56,0-11.08-0.18-16.55-0.54C410.32,982.12,419.16,975.84,427.55,969.03z"/>
		<path class="st1" d="M417.63,488.36c4.38,0,8.74,0.11,13.06,0.34c-33.09,9.35-63.39,25.33-89.38,46.43
			c-17.5-5.19-35.8-8.52-54.67-9.75C324.73,501.9,369.6,488.36,417.63,488.36z"/>
		<path class="st1" d="M402.47,960.1c8.15,3.4,16.52,6.39,25.08,8.93c-8.39,6.81-17.23,13.09-26.47,18.79
			c-10.06-0.66-19.96-1.91-29.65-3.72C382.41,976.91,392.78,968.88,402.47,960.1z"/>
		<path class="st1" d="M371.43,984.1c9.69,1.81,19.59,3.06,29.65,3.72c-38.09,23.48-82.96,37.02-130.99,37.02
			c-5.97,0-11.89-0.21-17.75-0.63C296.1,1021.15,336.76,1006.82,371.43,984.1z"/>
		<path class="st1" d="M341.31,535.13c-3.56,2.88-7.03,5.86-10.42,8.93c-15.93-6.65-32.7-11.71-50.1-14.96
			c1.93-1.26,3.88-2.5,5.85-3.72C305.51,526.61,323.81,529.94,341.31,535.13z"/>
		<path class="st1" d="M286.64,525.38c-1.97,1.22-3.92,2.46-5.85,3.72c-9.31-1.74-18.8-2.96-28.45-3.63
			c5.86-0.42,11.78-0.63,17.75-0.63C275.65,524.84,281.17,525.02,286.64,525.38z"/>
	</g>
	<g>
		<path class="st2" d="M330.89,544.06c3.39-3.07,6.86-6.05,10.42-8.93c25.99-21.1,56.29-37.08,89.38-46.43
			c21.65-6.11,44.48-9.38,68.08-9.38c138.07,0,250,111.92,250,250c0,138.07-111.93,250-250,250c-4.38,0-8.74-0.11-13.06-0.34
			c-20.11-1.03-39.58-4.44-58.16-9.95"/>
		<path class="st2" d="M280.79,529.1c1.93-1.26,3.88-2.5,5.85-3.72c38.09-23.48,82.96-37.02,130.99-37.02
			c4.38,0,8.74,0.11,13.06,0.34c132,6.79,236.94,115.97,236.94,249.66c0,114.47-76.94,210.97-181.92,240.62
			c-21.65,6.11-44.48,9.38-68.08,9.38c-5.56,0-11.08-0.18-16.55-0.54"/>
		<path class="st2" d="M252.34,525.47c5.86-0.42,11.78-0.63,17.75-0.63c5.56,0,11.08,0.18,16.55,0.54"/>
		<path class="st2" d="M401.08,987.82c-38.09,23.48-82.96,37.02-130.99,37.02c-5.97,0-11.89-0.21-17.75-0.63"/>
		<path class="st2" d="M341.31,535.13c103.37,30.67,178.78,126.38,178.78,239.71c0,78.39-36.08,148.35-92.54,194.19"/>
		<path class="st2" d="M252.34,525.47c9.65,0.67,19.14,1.89,28.45,3.63c17.4,3.25,34.17,8.31,50.1,14.96
			c90.27,37.71,153.7,126.83,153.7,230.78c0,73.46-31.68,139.51-82.12,185.26c-9.69,8.78-20.06,16.81-31.04,24
			c-34.67,22.72-75.33,37.05-119.09,40.11"/>
	</g>
</g>
<g id="XMLID_1_">
	<g>
		<path class="st1" d="M1055.73,786.97c0.23,3.45,0.35,6.94,0.35,10.45c0,44-18.4,83.71-47.92,111.85
			c-10.31-10.67-18.16-23.74-22.62-38.28c8.42-15.51,14.25-32.63,16.94-50.77C1015.75,803.75,1034.38,791.78,1055.73,786.97z"/>
		<path class="st1" d="M1049.15,751.52c3.51,11.31,5.76,23.18,6.58,35.45c-21.35,4.81-39.98,16.78-53.25,33.25
			c1.1-7.44,1.67-15.05,1.67-22.8c0-5.23-0.26-10.39-0.77-15.49C1015.18,767.72,1031.02,757,1049.15,751.52z"/>
		<path class="st1" d="M901.57,333.88c85.33,0,154.51,69.18,154.51,154.51c0,85.34-69.18,154.52-154.51,154.52
			c-4.8,0-9.54-0.22-14.23-0.65c-0.33-0.93-0.66-1.86-1.01-2.78c69.72-14.93,121.99-76.91,121.99-151.09
			c0-77.21-56.64-141.19-130.63-152.68C885.47,334.51,893.45,333.88,901.57,333.88z"/>
		<path class="st1" d="M901.57,642.91c69.35,0,128.03,45.69,147.58,108.61c-18.13,5.48-33.97,16.2-45.77,30.41
			c-6.44-64.7-52.79-117.65-114.08-133.88c-0.49-1.52-1-3.03-1.52-4.53C892.32,643.12,896.92,642.91,901.57,642.91z"/>
		<path class="st1" d="M1008.16,909.27c-5.21,4.97-10.77,9.57-16.63,13.78c-6.51-12.9-10.18-27.49-10.18-42.93
			c0-0.64,0.01-1.28,0.02-1.92c1.45-2.36,2.84-4.77,4.17-7.21C990,885.53,997.85,898.6,1008.16,909.27z"/>
		<path class="st1" d="M889.3,648.05c7.97,24.41,12.27,50.48,12.27,77.56c0,78.8-36.45,149.08-93.41,194.9
			c-8.62-6.55-16.53-13.99-23.6-22.18c42.9-44.88,69.25-105.72,69.25-172.72c0-24.81-3.61-48.78-10.34-71.4
			c10.22-4.16,20.97-7.24,32.14-9.13C880.25,645.87,884.82,646.86,889.3,648.05z"/>
		<path class="st1" d="M887.78,643.52c0.52,1.5,1.03,3.01,1.52,4.53c-4.48-1.19-9.05-2.18-13.69-2.97
			C879.62,644.4,883.68,643.88,887.78,643.52z"/>
		<path class="st1" d="M887.34,642.26c0.15,0.42,0.3,0.84,0.44,1.26c-4.1,0.36-8.16,0.88-12.17,1.56
			c-8.44-1.43-17.12-2.17-25.97-2.17c-3.27,0-6.51,0.1-9.73,0.3c-0.11-0.32-0.22-0.64-0.33-0.95c4.69,0.43,9.43,0.65,14.23,0.65
			c8.12,0,16.1-0.63,23.88-1.84C880.88,641.57,884.09,641.97,887.34,642.26z"/>
		<path class="st1" d="M886.33,639.48c0.35,0.92,0.68,1.85,1.01,2.78c-3.25-0.29-6.46-0.69-9.65-1.19
			C880.6,640.62,883.48,640.09,886.33,639.48z"/>
		<path class="st1" d="M886.33,639.48c-2.85,0.61-5.73,1.14-8.64,1.59c-15.55-2.41-30.33-7.14-43.97-13.82
			c-17.81-41.57-46.56-77.34-82.63-103.68c-2.19-9.37-3.52-19.08-3.91-29.02C811.49,521.18,862.27,573.89,886.33,639.48z"/>
		<path class="st1" d="M853.81,333.88c8.12,0,16.1,0.63,23.88,1.83c-74,11.48-130.63,75.47-130.63,152.68
			c0,2.06,0.04,4.12,0.12,6.16c-15.19-6.3-31.14-11.14-47.67-14.35C703.77,398.68,771.22,333.88,853.81,333.88z"/>
		<path class="st1" d="M877.69,641.07c-7.78,1.21-15.76,1.84-23.88,1.84c-4.8,0-9.54-0.22-14.23-0.65
			c-1.8-5.08-3.75-10.09-5.86-15.01C847.36,633.93,862.14,638.66,877.69,641.07z"/>
		<path class="st1" d="M849.64,642.91c8.85,0,17.53,0.74,25.97,2.17c-11.17,1.89-21.92,4.97-32.14,9.13c-1.1-3.71-2.29-7.37-3.56-11
			C843.13,643.01,846.37,642.91,849.64,642.91z"/>
		<path class="st1" d="M833.72,627.25c2.11,4.92,4.06,9.93,5.86,15.01c-76.65-6.99-137.11-69.98-140.16-147.71
			c18.44,7.63,35.76,17.41,51.67,29.02C761.71,569.23,792.58,607.11,833.72,627.25z"/>
		<path class="st1" d="M784.56,898.33c7.07,8.19,14.98,15.63,23.6,22.18c-7.59,6.11-15.55,11.78-23.83,16.98
			c-9.17-4.29-17.86-9.45-25.95-15.38C767.66,914.81,776.4,906.86,784.56,898.33z"/>
		<path class="st1" d="M758.38,922.11c8.09,5.93,16.78,11.09,25.95,15.38c-32.67,20.51-70.42,33.68-110.94,37.18
			c13.28-2.4,25.02-9.24,33.61-18.93c5.49-2.48,10.53-5.78,14.96-9.75C734.82,939.08,747,931.08,758.38,922.11z M709.39,963.78
			l-2.94-5.08l-2.93,5.08H709.39z"/>
		<path class="st1" d="M747.18,494.55c0.39,9.94,1.72,19.65,3.91,29.02c-15.91-11.61-33.23-21.39-51.67-29.02
			c-0.08-2.04-0.12-4.1-0.12-6.16c0-2.75,0.07-5.48,0.21-8.19C716.04,483.41,731.99,488.25,747.18,494.55z"/>
		<path class="st1" d="M710.09,951.96c4.02-1.89,7.98-3.88,11.87-5.97c-4.43,3.97-9.47,7.27-14.96,9.75
			C708.09,954.53,709.12,953.26,710.09,951.96z"/>
		<polygon class="st1" points="706.45,958.7 709.39,963.78 703.52,963.78 		"/>
		<path class="st1" d="M710.09,951.96c-0.97,1.3-2,2.57-3.09,3.78c-5.49,2.49-11.43,4.16-17.67,4.86
			C696.41,958.03,703.33,955.14,710.09,951.96z"/>
		<path class="st1" d="M707,955.74c-8.59,9.69-20.33,16.53-33.61,18.93c-4.7,0.41-9.43,0.68-14.2,0.82
			c-5.39-0.32-10.59-1.37-15.49-3.05c15.75-2.52,31.01-6.52,45.63-11.84C695.57,959.9,701.51,958.23,707,955.74z"/>
		<path class="st1" d="M699.51,480.2c-0.14,2.71-0.21,5.44-0.21,8.19c0,2.06,0.04,4.12,0.12,6.16
			c-22.45-9.31-46.54-15.43-71.73-17.81c7.86-0.75,15.83-1.13,23.88-1.13C667.97,475.61,683.99,477.19,699.51,480.2z"/>
	</g>
	<g>
		<path class="st2" d="M991.53,923.05c-6.51-12.9-10.18-27.49-10.18-42.93c0-0.64,0.01-1.28,0.02-1.92"/>
		<path class="st2" d="M751.09,523.57c36.07,26.34,64.82,62.11,82.63,103.68c2.11,4.92,4.06,9.93,5.86,15.01
			c0.11,0.31,0.22,0.63,0.33,0.95c1.27,3.63,2.46,7.29,3.56,11c6.73,22.62,10.34,46.59,10.34,71.4c0,67-26.35,127.84-69.25,172.72
			c-8.16,8.53-16.9,16.48-26.18,23.78c-11.38,8.97-23.56,16.97-36.42,23.88c-3.89,2.09-7.85,4.08-11.87,5.97
			c-6.76,3.18-13.68,6.07-20.76,8.64c-14.62,5.32-29.88,9.32-45.63,11.84"/>
		<path class="st2" d="M627.69,476.74c25.19,2.38,49.28,8.5,71.73,17.81"/>
		<path class="st2" d="M747.18,494.55c64.31,26.63,115.09,79.34,139.15,144.93c0.35,0.92,0.68,1.85,1.01,2.78
			c0.15,0.42,0.3,0.84,0.44,1.26c0.52,1.5,1.03,3.01,1.52,4.53c7.97,24.41,12.27,50.48,12.27,77.56c0,78.8-36.45,149.08-93.41,194.9
			c-7.59,6.11-15.55,11.78-23.83,16.98c-32.67,20.51-70.42,33.68-110.94,37.18c-4.7,0.41-9.43,0.68-14.2,0.82"/>
		<path class="st2" d="M627.69,476.74c7.86-0.75,15.83-1.13,23.88-1.13c16.4,0,32.42,1.58,47.94,4.59"/>
		<path class="st2" d="M839.58,642.26c-76.65-6.99-137.11-69.98-140.16-147.71c-0.08-2.04-0.12-4.1-0.12-6.16
			c0-2.75,0.07-5.48,0.21-8.19c4.26-81.52,71.71-146.32,154.3-146.32c8.12,0,16.1,0.63,23.88,1.83
			c73.99,11.49,130.63,75.47,130.63,152.68c0,74.18-52.27,136.16-121.99,151.09c-2.85,0.61-5.73,1.14-8.64,1.59"/>
		<path class="st2" d="M875.61,645.08c4.64,0.79,9.21,1.78,13.69,2.97c61.29,16.23,107.64,69.18,114.08,133.88
			c0.51,5.1,0.77,10.26,0.77,15.49c0,7.75-0.57,15.36-1.67,22.8c-2.69,18.14-8.52,35.26-16.94,50.77c-1.33,2.44-2.72,4.85-4.17,7.21
			"/>
		<path class="st2" d="M833.72,627.25c-41.14-20.14-72.01-58.02-82.63-103.68c-2.19-9.37-3.52-19.08-3.91-29.02
			c-0.08-2.04-0.12-4.1-0.12-6.16c0-77.21,56.63-141.2,130.63-152.68c7.78-1.2,15.76-1.83,23.88-1.83
			c85.33,0,154.51,69.18,154.51,154.51c0,85.34-69.18,154.52-154.51,154.52c-4.8,0-9.54-0.22-14.23-0.65
			c-3.25-0.29-6.46-0.69-9.65-1.19"/>
		<path class="st2" d="M875.61,645.08c4.01-0.68,8.07-1.2,12.17-1.56c4.54-0.4,9.14-0.61,13.79-0.61
			c69.35,0,128.03,45.69,147.58,108.61c3.51,11.31,5.76,23.18,6.58,35.45c0.23,3.45,0.35,6.94,0.35,10.45
			c0,44-18.4,83.71-47.92,111.85c-5.21,4.97-10.77,9.57-16.63,13.78"/>
		<path class="st2" d="M673.39,974.67c-3.43,0.62-6.96,0.94-10.56,0.94c-1.22,0-2.44-0.04-3.64-0.12
			c-5.39-0.32-10.59-1.37-15.49-3.05"/>
	</g>
</g>
<rect x="16.49" y="24.88" class="st3" width="1308.96" height="1308.96"/>
<rect x="53.67" y="1162.08" class="st4" width="1226.88" height="146.88"/>
<text transform="matrix(1 0 0 1 327.5631 1233.0787)" class="st5 st6 st7">Rankų_Darbas.lt</text>
</svg>
